/* XPM */
static char *image[] = {
"48 48 42 1",
"  c None",
"0 c #a8b1b9",
"1 c #a9b2b9",
"2 c #9da6ad",
"3 c #808b92",
"4 c #758087",
"5 c #7f8a91",
"6 c #9ea7ad",
"7 c #939ca2",
"8 c #c6ced1",
"9 c #97a0a6",
": c #aab2b9",
"; c #a7b0b8",
"A c #c4cbcf",
"B c #c6ccd0",
"C c #79848c",
"D c #2c3c47",
"E c #59656f",
"F c #bec5c8",
"G c #bbc1c6",
"H c #56636c",
"I c #f1f3f5",
"J c #5c6971",
"K c #c2c8cb",
"L c #2a3b45",
"M c #293a45",
"N c #78848b",
"O c #263742",
"P c #2b3b46",
"Q c #78838b",
"R c #d1d6da",
"S c #a8b1b8",
"T c #c5ccd1",
"U c #aab3b9",
"V c #d2d8dc",
"W c #d1d7dc",
"X c #c6cdd2",
"Y c #aab3ba",
"Z c #aab2ba",
"a c #a7b0b7",
"b c #a8b0b7",
"c c #a9b3ba",
"                                                ",
"                                                ",
"                                                ",
"                                                ",
"    cbaaaaaaaaaaaaaaaaaaaaaaaaaaaaaaaaaaaabZ    ",
"   YXWVVVVVVVVVVVVVVVVVVVVVVVVVVVVVVVVVVVVWXU   ",
"  UTVVVVVVVVVVVVVVVVVVVVVVVVVVVVVVVVVVVVVVVVTU  ",
"  SRVVVVVVVVVVVVVVVVVVVVVVVVVVVVVVVVVVVVVVVVRS  ",
"  aVVVQPOOOOOOOOOOOOOOOOOOOOOOOOOOOOOOOOPNVVVa  ",
"  aVVVMOOOOOOOOOOOOOOOOOOOOOOOOOOOOOOOOOOLVVVa  ",
"  aVVVOOOOOOOOOOOOOOOOOOOOOOOOOOOOOOOOOOOOVVVa  ",
"  aVVVOOOOOOOOOOOOOOOOOOOOOOOOOOOOOOOOOOOOVVVa  ",
"  aVVVOOOOKJOOOOOOOOOOOOOOOOOOOOOOOOOOOOOOVVVa  ",
"  aVVVOOOOIIKJOOOOOOOOOOOOOOOOOOOOOOOOOOOOVVVa  ",
"  aVVVOOOOHGIIKJOOOOOOOOOOOOOOOOOOOOOOOOOOVVVa  ",
"  aVVVOOOOOOHGIIOOOOOOOOOOOOOOOOOOOOOOOOOOVVVa  ",
"  aVVVOOOOOOHGIIOOOOOOOOOOOOOOOOOOOOOOOOOOVVVa  ",
"  aVVVOOOOHGIIKJOOOOOOOOOOOOOOOOOOOOOOOOOOVVVa  ",
"  aVVVOOOOIIKJOOOOOOOOOOOOOOOOOOOOOOOOOOOOVVVa  ",
"  aVVVOOOOFEOOOOOOOOOOOOOOOOOOOOOOOOOOOOOOVVVa  ",
"  aVVVOOOOOOOOOOOOOOOOOOOOOOOOOOOOOOOOOOOOVVVa  ",
"  aVVVOOOOOOOOOOOOOOOOOOOOOOOOOOOOOOOOOOOOVVVa  ",
"  aVVVOOOOOOOOOOOOIIIIIIIIOOOOOOOOOOOOOOOOVVVa  ",
"  aVVVOOOOOOOOOOOOIIIIIIIIOOOOOOOOOOOOOOOOVVVa  ",
"  aVVVOOOOOOOOOOOOOOOOOOOOOOOOOOOOOOOOOOOOVVVa  ",
"  aVVVOOOOOOOOOOOOOOOOOOOOOOOOOOOOOOOOOOOOVVVa  ",
"  aVVVOOOOOOOOOOOOOOOOOOOOOOOOOOOOOOOOOOOOVVVa  ",
"  aVVVOOOOOOOOOOOOOOOOOOOOOOOOOOOOOOOOOOOOVVVa  ",
"  aVVVOOOOOOOOOOOOOOOOOOOOOOOOOOOOOOOOOOOOVVVa  ",
"  aVVVOOOOOOOOOOOOOOOOOOOOOOOOOOOOOOOOOOOOVVVa  ",
"  aVVVOOOOOOOOOOOOOOOOOOOOOOOOOOOOOOOOOOOOVVVa  ",
"  aVVVOOOOOOOOOOOOOOOOOOOOOOOOOOOOOOOOOOOOVVVa  ",
"  aVVVOOOOOOOOOOOOOOOOOOOOOOOOOOOOOOOOOOOOVVVa  ",
"  aVVVOOOOOOOOOOOOOOOOOOOOOOOOOOOOOOOOOOOOVVVa  ",
"  aVVVOOOOOOOOOOOOOOOOOOOOOOOOOOOOOOOOOOOOVVVa  ",
"  aVVVOOOOOOOOOOOOOOOOOOOOOOOOOOOOOOOOOOOOVVVa  ",
"  aVVVOOOOOOOOOOOOOOOOOOOOOOOOOOOOOOOOOOOOVVVa  ",
"  aVVVOOOOOOOOOOOOOOOOOOOOOOOOOOOOOOOOOOOOVVVa  ",
"  aVVVMOOOOOOOOOOOOOOOOOOOOOOOOOOOOOOOOOOLVVVa  ",
"  aVVVNDOOOOOOOOOOOOOOOOOOOOOOOOOOOOOOOODCVVVa  ",
"  aVVVVVVVVVVVVVVVVVVVVVVVVVVVVVVVVVVVVVVVVVVa  ",
"  SBVVVVVVVVVVVVVVVVVVVVVVVVVVVVVVVVVVVVVVVVA;  ",
"  :98VVVVVVVVVVVVVVVVVVVVVVVVVVVVVVVVVVVVVVT7Y  ",
"   654444444444444444444444444444444444444432   ",
"    10aaaaaaaaaaaaaaaaaaaaaaaaaaaaaaaaaaaa0U    ",
"                                                ",
"                                                ",
"                                                "};
